<svg width="32" height="33" viewBox="0 0 32 33" fill="none" xmlns="http://www.w3.org/2000/svg">
<rect y="0.5" width="32" height="32" rx="10" fill="#0D4E6E"/>
<path d="M26.1129 26.4907C26.8074 26.3433 27.2211 25.6031 26.8759 24.9718C26.1151 23.5802 24.9166 22.3573 23.3833 21.4253C21.4086 20.2251 18.9891 19.5745 16.5 19.5745C14.0109 19.5745 11.5914 20.2251 9.61672 21.4253C8.08345 22.3573 6.88487 23.5802 6.12406 24.9718C5.77895 25.6031 6.19258 26.3433 6.8871 26.4907C13.2276 27.8364 19.7724 27.8364 26.1129 26.4907Z" fill="#DEC8FF"/>
<path d="M22.7817 11.8975C22.7817 15.4307 19.9693 18.295 16.5 18.295C13.0308 18.295 10.2184 15.4307 10.2184 11.8975C10.2184 8.36426 13.0308 5.5 16.5 5.5C19.9693 5.5 22.7817 8.36426 22.7817 11.8975Z" fill="#DEC8FF"/>
</svg>
