<svg width="32" height="33" viewBox="0 0 32 33" fill="none" xmlns="http://www.w3.org/2000/svg">
<rect y="0.5" width="32" height="32" rx="10" fill="#0D4E6E"/>
<path d="M21.5556 15.3889C21.5556 11.707 18.5708 8.72223 14.8889 8.72223C11.207 8.72223 8.22223 11.707 8.22223 15.3889C8.22223 19.0708 11.207 22.0556 14.8889 22.0556C18.5708 22.0556 21.5556 19.0708 21.5556 15.3889ZM23.7779 15.3889C23.7779 20.2981 19.7981 24.2779 14.8889 24.2779C9.97971 24.2779 6 20.2981 6 15.3889C6 10.4797 9.97971 6.5 14.8889 6.5C19.7981 6.5 23.7779 10.4797 23.7779 15.3889Z" fill="#DEC8FF"/>
<path d="M20.77 21.27C21.2039 20.8361 21.9073 20.8361 22.3412 21.27L25.6746 24.6034C26.1085 25.0373 26.1085 25.7406 25.6746 26.1746C25.2406 26.6085 24.5373 26.6085 24.1034 26.1746L20.77 22.8412C20.3361 22.4073 20.3361 21.7039 20.77 21.27Z" fill="#DEC8FF"/>
<path d="M21.5556 15.3889C21.5556 11.707 18.5708 8.72223 14.8889 8.72223C11.207 8.72223 8.22223 11.707 8.22223 15.3889C8.22223 19.0708 11.207 22.0556 14.8889 22.0556C18.5708 22.0556 21.5556 19.0708 21.5556 15.3889ZM23.7779 15.3889C23.7779 20.2981 19.7981 24.2779 14.8889 24.2779C9.97971 24.2779 6 20.2981 6 15.3889C6 10.4797 9.97971 6.5 14.8889 6.5C19.7981 6.5 23.7779 10.4797 23.7779 15.3889Z" stroke="#DEC8FF" stroke-linecap="round"/>
<path d="M20.77 21.27C21.2039 20.8361 21.9073 20.8361 22.3412 21.27L25.6746 24.6034C26.1085 25.0373 26.1085 25.7406 25.6746 26.1746C25.2406 26.6085 24.5373 26.6085 24.1034 26.1746L20.77 22.8412C20.3361 22.4073 20.3361 21.7039 20.77 21.27Z" stroke="#DEC8FF" stroke-linecap="round"/>
</svg>
