<svg width="32" height="33" viewBox="0 0 32 33" fill="none" xmlns="http://www.w3.org/2000/svg">
<rect y="0.5" width="32" height="32" rx="10" fill="#0D4E6E"/>
<path d="M16 6.5C21.5228 6.5 26 10.9772 26 16.5C26 22.0228 21.5228 26.5 16 26.5C10.4772 26.5 6 22.0228 6 16.5C6 10.9772 10.4772 6.5 16 6.5ZM16 9.83333C15.3864 9.83333 15 10.3308 15 10.9444V15.5H10.4444C9.8308 15.5 9.33333 15.8864 9.33333 16.5C9.33333 17.1136 9.8308 17.5 10.4444 17.5H15V22.0556C15 22.6692 15.3864 23.1667 16 23.1667C16.6136 23.1667 17 22.6692 17 22.0556V17.5H21.5556C22.1692 17.5 22.6667 17.1136 22.6667 16.5C22.6667 15.8864 22.1692 15.5 21.5556 15.5H17V10.9444C17 10.3308 16.6136 9.83333 16 9.83333Z" fill="#0D4E6E" stroke="#DEC8FF" stroke-width="2"/>
</svg>
