<svg width="19" height="19" viewBox="0 0 19 19" fill="none" xmlns="http://www.w3.org/2000/svg">
<path d="M7.48729 3.9415C8.24112 1.9805 8.61804 1 9.26618 1C9.91433 1 10.2912 1.9805 11.0451 3.9415L11.0802 4.03281C11.5061 5.14068 11.719 5.69462 12.153 6.0313C12.587 6.36799 13.1566 6.42123 14.296 6.52771L14.502 6.54696C16.3667 6.72122 17.2991 6.80835 17.4986 7.42734C17.6981 8.04632 17.0057 8.70366 15.6209 10.0183L15.1587 10.4571C14.4577 11.1226 14.1071 11.4554 13.9438 11.8915C13.9133 11.9729 13.888 12.0562 13.8679 12.141C13.7605 12.5957 13.8632 13.0784 14.0685 14.0439L14.1324 14.3444C14.5096 16.1188 14.6983 17.0059 14.3689 17.3886C14.2458 17.5316 14.0859 17.6345 13.9082 17.6851C13.4327 17.8205 12.7575 17.2465 11.4073 16.0984C10.5207 15.3445 10.0774 14.9676 9.56839 14.8828C9.36819 14.8494 9.16418 14.8494 8.96398 14.8828C8.455 14.9676 8.01169 15.3445 7.12507 16.0984C5.77482 17.2465 5.0997 17.8205 4.62417 17.6851C4.44648 17.6345 4.28653 17.5316 4.16345 17.3886C3.83409 17.0059 4.02273 16.1188 4.4 14.3444L4.4639 14.0439C4.66918 13.0784 4.77182 12.5957 4.66444 12.141C4.64441 12.0562 4.61907 11.9729 4.5886 11.8915C4.42523 11.4554 4.07471 11.1226 3.37369 10.4571L2.9115 10.0184C1.52667 8.70366 0.834249 8.04632 1.03375 7.42734C1.23326 6.80835 2.16563 6.72122 4.03036 6.54696L4.23635 6.52771C5.37572 6.42123 5.94541 6.36799 6.37939 6.0313C6.81338 5.69462 7.02631 5.14068 7.45219 4.03281L7.48729 3.9415Z" stroke="#222222"/>
</svg>
