<svg width="32" height="32" viewBox="0 0 32 32" fill="none" xmlns="http://www.w3.org/2000/svg">
<path d="M16 23.4004C17.893 23.4004 19.7335 24.0254 21.2354 25.1777C22.7143 26.3127 23.783 27.8971 24.2832 29.6914C21.867 31.1564 19.032 32 16 32C12.9679 31.9999 10.1331 31.1565 7.7168 29.6914C8.21692 27.8971 9.28572 26.3127 10.7646 25.1777C12.2665 24.0254 14.107 23.4005 16 23.4004ZM16 0C24.8364 0 31.9998 7.16361 32 16C32 21.0524 29.6574 25.557 26 28.4893C25.3199 26.5522 24.091 24.8477 22.4531 23.5908C20.602 22.1704 18.3333 21.4004 16 21.4004C13.6668 21.4005 11.3989 22.1706 9.54785 23.5908C7.91004 24.8476 6.67921 26.5513 5.99902 28.4883C2.34242 25.556 0 21.0518 0 16C0.000154302 7.16371 7.16371 0.000159127 16 0ZM16 5.40039C12.7969 5.40049 10.2003 7.9971 10.2002 11.2002C10.2003 14.4033 12.7969 16.9999 16 17C19.2032 17 21.7997 14.4034 21.7998 11.2002C21.7997 7.99706 19.2031 5.40042 16 5.40039ZM16 7.40039C18.0986 7.40042 19.7997 9.10162 19.7998 11.2002C19.7997 13.2988 18.0986 15 16 15C13.9015 14.9999 12.2003 13.2988 12.2002 11.2002C12.2003 9.10166 13.9015 7.40049 16 7.40039Z" fill="#0D4E6E"/>
</svg>
