<svg width="66" height="65" viewBox="0 0 66 65" fill="none" xmlns="http://www.w3.org/2000/svg">
<path fill-rule="evenodd" clip-rule="evenodd" d="M33 0C51.2254 0 66 14.5507 66 32.5C66 50.4493 51.2254 65 33 65C14.7746 65 0 50.4493 0 32.5C0 14.5507 14.7746 0 33 0ZM34.8333 7.2857C34.0028 7.22717 33.5856 7.19909 33.2936 7.46555C33.0016 7.73332 33 8.16546 33 9.02778V31.4562C33 31.9641 33.0005 32.2202 32.8783 32.4295C32.7554 32.639 32.5307 32.7675 32.0833 33.0219L12.3607 44.2361C11.6024 44.6673 11.2219 44.8829 11.1325 45.2658C11.0431 45.6488 11.2774 45.9893 11.7448 46.6694C13.918 49.8314 16.7954 52.4754 20.1667 54.3924C24.0684 56.6108 28.4948 57.7778 33 57.7778C37.5052 57.7778 41.9316 56.6108 45.8333 54.3924C49.7352 52.1738 52.9764 48.9816 55.2292 45.1389C57.4817 41.2963 58.6667 36.937 58.6667 32.5C58.6667 28.063 57.4817 23.7037 55.2292 19.8611C52.9764 16.0184 49.7352 12.8262 45.8333 10.6076C42.4624 8.69105 38.6999 7.55837 34.8333 7.2857Z" fill="#222222"/>
</svg>
